<svg xmlns="http://www.w3.org/2000/svg" viewBox="0 0 1200 560" width="1200" height="560" role="img" aria-label="Admission requires four separate proofs, two from the build and two from Tekton Chains; an image missing any one is refused.">
<title>Admission requires four separate proofs, two from the build and two from Tekton Chains; an image missing any one is refused.</title>
<defs><marker id="a-ink" viewBox="0 0 10 10" refX="9" refY="5" markerWidth="7" markerHeight="7" orient="auto-start-reverse"><path d="M0 0 L10 5 L0 10 z" fill="#1f2933"/></marker><marker id="a-good" viewBox="0 0 10 10" refX="9" refY="5" markerWidth="7" markerHeight="7" orient="auto-start-reverse"><path d="M0 0 L10 5 L0 10 z" fill="#1a7f5a"/></marker><marker id="a-bad" viewBox="0 0 10 10" refX="9" refY="5" markerWidth="7" markerHeight="7" orient="auto-start-reverse"><path d="M0 0 L10 5 L0 10 z" fill="#c0362c"/></marker><marker id="a-line" viewBox="0 0 10 10" refX="9" refY="5" markerWidth="7" markerHeight="7" orient="auto-start-reverse"><path d="M0 0 L10 5 L0 10 z" fill="#9aa5b1"/></marker><marker id="a-muted" viewBox="0 0 10 10" refX="9" refY="5" markerWidth="7" markerHeight="7" orient="auto-start-reverse"><path d="M0 0 L10 5 L0 10 z" fill="#5f6c7b"/></marker></defs>
<rect width="1200" height="560" fill="#ffffff"/>
<text x="22" y="34" font-family="Inter, 'Helvetica Neue', Helvetica, Arial, 'Liberation Sans', sans-serif" font-size="16" fill="#1f2933" text-anchor="start" font-weight="600">One SupplyChainPolicy renders four policies. An image must pass all of them.</text>
<path d="M392 78 L392 68 L718 68 L718 78" fill="none" stroke="#9aa5b1" stroke-width="1.4"/>
<text x="555.0" y="60" font-family="Inter, 'Helvetica Neue', Helvetica, Arial, 'Liberation Sans', sans-serif" font-size="13" fill="#5f6c7b" text-anchor="middle" font-weight="400">trusts the build&#x27;s identity</text>
<path d="M732 78 L732 68 L1058 68 L1058 78" fill="none" stroke="#9aa5b1" stroke-width="1.4"/>
<text x="895.0" y="60" font-family="Inter, 'Helvetica Neue', Helvetica, Arial, 'Liberation Sans', sans-serif" font-size="13" fill="#5f6c7b" text-anchor="middle" font-weight="400">trusts Tekton Chains&#x27; identity</text>
<rect x="392" y="88" width="156" height="62" rx="8" fill="#f3f5f7" stroke="#9aa5b1" stroke-width="1.5"/>
<text x="470" y="113" font-family="Inter, 'Helvetica Neue', Helvetica, Arial, 'Liberation Sans', sans-serif" font-size="14.5" fill="#1f2933" text-anchor="middle" font-weight="600">signature</text>
<text x="470" y="134" font-family="Inter, 'Helvetica Neue', Helvetica, Arial, 'Liberation Sans', sans-serif" font-size="12" fill="#5f6c7b" text-anchor="middle" font-weight="400">the image, signed</text>
<rect x="562" y="88" width="156" height="62" rx="8" fill="#f3f5f7" stroke="#9aa5b1" stroke-width="1.5"/>
<text x="640" y="113" font-family="Inter, 'Helvetica Neue', Helvetica, Arial, 'Liberation Sans', sans-serif" font-size="14.5" fill="#1f2933" text-anchor="middle" font-weight="600">authorization</text>
<text x="640" y="134" font-family="Inter, 'Helvetica Neue', Helvetica, Arial, 'Liberation Sans', sans-serif" font-size="12" fill="#5f6c7b" text-anchor="middle" font-weight="400">attests the 3 reviews</text>
<rect x="732" y="88" width="156" height="62" rx="8" fill="#f3f5f7" stroke="#9aa5b1" stroke-width="1.5"/>
<text x="810" y="113" font-family="Inter, 'Helvetica Neue', Helvetica, Arial, 'Liberation Sans', sans-serif" font-size="14.5" fill="#1f2933" text-anchor="middle" font-weight="600">signature</text>
<text x="810" y="134" font-family="Inter, 'Helvetica Neue', Helvetica, Arial, 'Liberation Sans', sans-serif" font-size="12" fill="#5f6c7b" text-anchor="middle" font-weight="400">the image, signed</text>
<rect x="902" y="88" width="156" height="62" rx="8" fill="#f3f5f7" stroke="#9aa5b1" stroke-width="1.5"/>
<text x="980" y="113" font-family="Inter, 'Helvetica Neue', Helvetica, Arial, 'Liberation Sans', sans-serif" font-size="14.5" fill="#1f2933" text-anchor="middle" font-weight="600">provenance</text>
<text x="980" y="134" font-family="Inter, 'Helvetica Neue', Helvetica, Arial, 'Liberation Sans', sans-serif" font-size="12" fill="#5f6c7b" text-anchor="middle" font-weight="400">attests SLSA v1.0</text>
<text x="1108" y="113" font-family="Inter, 'Helvetica Neue', Helvetica, Arial, 'Liberation Sans', sans-serif" font-size="14.5" fill="#1f2933" text-anchor="middle" font-weight="600">admission</text>
<text x="1108" y="134" font-family="Inter, 'Helvetica Neue', Helvetica, Arial, 'Liberation Sans', sans-serif" font-size="12" fill="#5f6c7b" text-anchor="middle" font-weight="400">all four?</text>
<rect x="22" y="190" width="1156" height="84" rx="8" fill="#ffffff" stroke="#9aa5b1" stroke-width="1.2"/>
<text x="44" y="226" font-family="Inter, 'Helvetica Neue', Helvetica, Arial, 'Liberation Sans', sans-serif" font-size="15" fill="#1f2933" text-anchor="start" font-weight="600">Built by the pipeline</text>
<text x="44" y="248" font-family="Inter, 'Helvetica Neue', Helvetica, Arial, 'Liberation Sans', sans-serif" font-size="12.5" fill="#5f6c7b" text-anchor="start" font-weight="400">signed by the build and by Chains</text>
<circle cx="470" cy="232" r="19" fill="#e6f4ed" stroke="#1a7f5a" stroke-width="1.4"/>
<path d="M462 232 L467.3333333333333 237.6 L478 226.4" stroke="#1a7f5a" stroke-width="2.6" stroke-linecap="round" stroke-linejoin="round" fill="none"/>
<circle cx="640" cy="232" r="19" fill="#e6f4ed" stroke="#1a7f5a" stroke-width="1.4"/>
<path d="M632 232 L637.3333333333334 237.6 L648 226.4" stroke="#1a7f5a" stroke-width="2.6" stroke-linecap="round" stroke-linejoin="round" fill="none"/>
<circle cx="810" cy="232" r="19" fill="#e6f4ed" stroke="#1a7f5a" stroke-width="1.4"/>
<path d="M802 232 L807.3333333333334 237.6 L818 226.4" stroke="#1a7f5a" stroke-width="2.6" stroke-linecap="round" stroke-linejoin="round" fill="none"/>
<circle cx="980" cy="232" r="19" fill="#e6f4ed" stroke="#1a7f5a" stroke-width="1.4"/>
<path d="M972 232 L977.3333333333334 237.6 L988 226.4" stroke="#1a7f5a" stroke-width="2.6" stroke-linecap="round" stroke-linejoin="round" fill="none"/>
<rect x="1050" y="212" width="116" height="40" rx="20" fill="#e6f4ed" stroke="#1a7f5a" stroke-width="1.5"/>
<text x="1108" y="237" font-family="Inter, 'Helvetica Neue', Helvetica, Arial, 'Liberation Sans', sans-serif" font-size="14" fill="#1a7f5a" text-anchor="middle" font-weight="600">admitted</text>
<rect x="22" y="290" width="1156" height="84" rx="8" fill="#ffffff" stroke="#9aa5b1" stroke-width="1.2"/>
<text x="44" y="326" font-family="Inter, 'Helvetica Neue', Helvetica, Arial, 'Liberation Sans', sans-serif" font-size="15" fill="#1f2933" text-anchor="start" font-weight="600">Signed by Chains only</text>
<text x="44" y="348" font-family="Inter, 'Helvetica Neue', Helvetica, Arial, 'Liberation Sans', sans-serif" font-size="12.5" fill="#5f6c7b" text-anchor="start" font-weight="400">the build&#x27;s signature is missing</text>
<circle cx="470" cy="332" r="19" fill="#fdecea" stroke="#c0362c" stroke-width="1.4"/>
<path d="M462 324 L478 340 M478 324 L462 340" stroke="#c0362c" stroke-width="2.6" stroke-linecap="round" fill="none"/>
<circle cx="640" cy="332" r="19" fill="#e6f4ed" stroke="#1a7f5a" stroke-width="1.4"/>
<path d="M632 332 L637.3333333333334 337.6 L648 326.4" stroke="#1a7f5a" stroke-width="2.6" stroke-linecap="round" stroke-linejoin="round" fill="none"/>
<circle cx="810" cy="332" r="19" fill="#e6f4ed" stroke="#1a7f5a" stroke-width="1.4"/>
<path d="M802 332 L807.3333333333334 337.6 L818 326.4" stroke="#1a7f5a" stroke-width="2.6" stroke-linecap="round" stroke-linejoin="round" fill="none"/>
<circle cx="980" cy="332" r="19" fill="#e6f4ed" stroke="#1a7f5a" stroke-width="1.4"/>
<path d="M972 332 L977.3333333333334 337.6 L988 326.4" stroke="#1a7f5a" stroke-width="2.6" stroke-linecap="round" stroke-linejoin="round" fill="none"/>
<rect x="1050" y="312" width="116" height="40" rx="20" fill="#fdecea" stroke="#c0362c" stroke-width="1.5"/>
<text x="1108" y="337" font-family="Inter, 'Helvetica Neue', Helvetica, Arial, 'Liberation Sans', sans-serif" font-size="14" fill="#c0362c" text-anchor="middle" font-weight="600">refused</text>
<rect x="22" y="390" width="1156" height="84" rx="8" fill="#ffffff" stroke="#9aa5b1" stroke-width="1.2"/>
<text x="44" y="426" font-family="Inter, 'Helvetica Neue', Helvetica, Arial, 'Liberation Sans', sans-serif" font-size="15" fill="#1f2933" text-anchor="start" font-weight="600">Pushed by hand</text>
<text x="44" y="448" font-family="Inter, 'Helvetica Neue', Helvetica, Arial, 'Liberation Sans', sans-serif" font-size="12.5" fill="#5f6c7b" text-anchor="start" font-weight="400">nobody signed it</text>
<circle cx="470" cy="432" r="19" fill="#fdecea" stroke="#c0362c" stroke-width="1.4"/>
<path d="M462 424 L478 440 M478 424 L462 440" stroke="#c0362c" stroke-width="2.6" stroke-linecap="round" fill="none"/>
<circle cx="640" cy="432" r="19" fill="#fdecea" stroke="#c0362c" stroke-width="1.4"/>
<path d="M632 424 L648 440 M648 424 L632 440" stroke="#c0362c" stroke-width="2.6" stroke-linecap="round" fill="none"/>
<circle cx="810" cy="432" r="19" fill="#fdecea" stroke="#c0362c" stroke-width="1.4"/>
<path d="M802 424 L818 440 M818 424 L802 440" stroke="#c0362c" stroke-width="2.6" stroke-linecap="round" fill="none"/>
<circle cx="980" cy="432" r="19" fill="#fdecea" stroke="#c0362c" stroke-width="1.4"/>
<path d="M972 424 L988 440 M988 424 L972 440" stroke="#c0362c" stroke-width="2.6" stroke-linecap="round" fill="none"/>
<rect x="1050" y="412" width="116" height="40" rx="20" fill="#fdecea" stroke="#c0362c" stroke-width="1.5"/>
<text x="1108" y="437" font-family="Inter, 'Helvetica Neue', Helvetica, Arial, 'Liberation Sans', sans-serif" font-size="14" fill="#c0362c" text-anchor="middle" font-weight="600">refused</text>
<text x="22" y="512" font-family="Inter, 'Helvetica Neue', Helvetica, Arial, 'Liberation Sans', sans-serif" font-size="13.5" fill="#5f6c7b" text-anchor="start" font-weight="400">Within one policy the listed signers are alternatives; across policies every one must pass.</text>
<text x="22" y="536" font-family="Inter, 'Helvetica Neue', Helvetica, Arial, 'Liberation Sans', sans-serif" font-size="13.5" fill="#5f6c7b" text-anchor="start" font-weight="400">That is why &quot;signed by the build and by Chains&quot; has to be more than one policy.</text>
</svg>
